<svg height="700pt" preserveAspectRatio="xMidYMid meet" viewBox="0 0 700 700" width="700pt" xmlns="http://www.w3.org/2000/svg"><path d="m3495 6194c-536-31-1011-187-1443-476-573-384-992-975-1162-1644-66-258-83-400-84-694 0-272 10-375 60-610 87-410 287-827 560-1170 93-117 329-351 444-440 415-321 859-509 1385-586 166-25 572-25 734-1 264 40 467 94 686 182 1125 452 1837 1574 1764 2780-34 579-222 1084-583 1565-80 108-355 389-461 472-378 297-781 483-1235 572-194 38-489 60-665 50zm350-2129c223-74 395-246 471-470 24-72 27-95 28-220 0-124-3-149-26-217-41-123-92-204-187-298-145-144-304-210-506-210-320 0-585 189-691 492-20 57-27 100-31 194-7 153 11 239 74 367 77 153 236 296 393 353 147 53 334 56 475 9zm-1236-957c33-147 127-319 244-444 401-430 1053-454 1490-54 121 111 240 304 287 468l24 82h723 723l-6-47c-64-541-277-1013-636-1413-279-310-664-559-1068-689-519-167-1102-159-1602 23-874 317-1493 1077-1623 1991-8 55-15 108-15 118 0 16 41 17 723 17h724z" transform="matrix(.1 0 0 -.1 0 700)"/></svg>