<?xml version="1.0" encoding="UTF-8" standalone="no"?>
<!-- Generator: Adobe Illustrator 16.0.0, SVG Export Plug-In . SVG Version: 6.00 Build 0)  -->

<svg
   xmlns:dc="http://purl.org/dc/elements/1.1/"
   xmlns:cc="http://creativecommons.org/ns#"
   xmlns:rdf="http://www.w3.org/1999/02/22-rdf-syntax-ns#"
   xmlns:svg="http://www.w3.org/2000/svg"
   xmlns="http://www.w3.org/2000/svg"
   xmlns:sodipodi="http://sodipodi.sourceforge.net/DTD/sodipodi-0.dtd"
   xmlns:inkscape="http://www.inkscape.org/namespaces/inkscape"
   version="1.1"
   id="Layer_2"
   x="0px"
   y="0px"
   width="864px"
   height="864px"
   viewBox="0 0 864 864"
   enable-background="new 0 0 864 864"
   xml:space="preserve"
   sodipodi:docname="pokeball.svg"
   inkscape:version="0.92.2pre0 (973e216, 2017-07-25)"><metadata
     id="metadata25"><rdf:RDF><cc:Work
         rdf:about=""><dc:format>image/svg+xml</dc:format><dc:type
           rdf:resource="http://purl.org/dc/dcmitype/StillImage" /><dc:title></dc:title></cc:Work></rdf:RDF></metadata><defs
     id="defs23" /><sodipodi:namedview
     pagecolor="#ffffff"
     bordercolor="#666666"
     borderopacity="1"
     objecttolerance="10"
     gridtolerance="10"
     guidetolerance="10"
     inkscape:pageopacity="0"
     inkscape:pageshadow="2"
     inkscape:window-width="2560"
     inkscape:window-height="1380"
     id="namedview21"
     showgrid="false"
     inkscape:zoom="0.24552319"
     inkscape:cx="-5.5876613"
     inkscape:cy="613.54981"
     inkscape:window-x="2560"
     inkscape:window-y="25"
     inkscape:window-maximized="1"
     inkscape:current-layer="g16" /><circle
     fill-rule="evenodd"
     clip-rule="evenodd"
     cx="447.178"
     cy="447.639"
     r="348.003"
     id="circle10" /><g
     id="g16"><path
       d="M573.713,473.543c-11.995,58.904-64.089,103.231-126.535,103.231   c-62.447,0-114.54-44.327-126.535-103.231H141.169c13.155,157.485,145.125,281.202,306.008,281.202   c160.884,0,292.855-123.717,306.011-281.202H573.713z"
       id="path12"
       clip-rule="evenodd"
       fill-rule="evenodd"
       fill="#FFFFFF" /><path
       d="m 447.178,357.277 c -49.904,0 -90.36,40.456 -90.36,90.362 0,49.904 40.456,90.361 90.36,90.361 49.906,0 90.361,-40.457 90.361,-90.361 0,-49.906 -40.455,-90.362 -90.361,-90.362 z"
       id="path14"
       inkscape:connector-curvature="0"
       style="clip-rule:evenodd;fill:#ffffff;fill-rule:evenodd"
       sodipodi:nodetypes="sssss" /></g><path
     fill-rule="evenodd"
     clip-rule="evenodd"
     fill="#ED1C24"
     d="M447.178,318.504c62.446,0,114.54,44.327,126.535,103.232h179.475  c-13.155-157.485-145.127-281.203-306.011-281.203c-160.882,0-292.852,123.718-306.008,281.203h179.474  C332.638,362.831,384.73,318.504,447.178,318.504z"
     id="path18" /></svg>